<?xml version="1.0" encoding="utf-8"?>
<!-- Generator: Adobe Illustrator 19.0.0, SVG Export Plug-In . SVG Version: 6.00 Build 0)  -->
<svg version="1.1" id="layer" xmlns="http://www.w3.org/2000/svg" xmlns:xlink="http://www.w3.org/1999/xlink" x="0px" y="0px"
	 viewBox="20 179 619 76" style="enable-background:new 20 179 619 76;" xml:space="preserve">
<path d="M421.4,231.5h-21.5l-4.2,12.2h-6.9l17.6-49.6h8.3l17.7,49.6h-6.9L421.4,231.5z M401.7,226.3h17.8l-6.3-18.4
	c-1.2-3.5-1.8-5.5-2.6-8h-0.2c-0.8,2.6-1.4,4.5-2.6,8L401.7,226.3z M450.8,199.4h14.7v-5.2h-36v5.2h14.6v44.4h6.7V199.4z
	 M496.7,224.4h-0.2l-15.4-30.3h-8.6v49.6h6.6v-13.9c0-8.7-0.4-18.9-0.4-27.6h0.2c1.8,4.2,3.1,7.4,5.1,11.3l10.1,19.9h5l10.1-19.9
	c2-3.9,3.3-7.1,5.1-11.3h0.2c-0.1,8.7-0.4,18.9-0.4,27.6v13.9h6.6v-49.6h-8.6L496.7,224.4z M551.3,244.6c-16.5,0-21.1-9.7-21.1-25.7
	s4.6-25.7,21.1-25.7s21.1,9.7,21.1,25.7C572.4,235,567.8,244.6,551.3,244.6 M551.3,239.1c11.1,0,14.2-6.5,14.2-20.2
	s-3.1-20.2-14.2-20.2c-11.1,0-14.2,6.5-14.2,20.2S540.2,239.1,551.3,239.1 M607.7,230c0,5.3-3.7,8.8-13,8.8c-3.1,0-9.8-0.3-14.6-2
	v5.8c4.2,1.8,12,2,14.4,2c10,0,20.2-3.4,20.2-15.4s-7.9-14-15.9-14.6c-6.7-0.4-12.1-0.3-12.1-7.8c0-5.3,4.2-8.1,11.7-8.1
	c3.1,0,7.8,0.2,12.5,1.7V195c-4.1-1.5-9.9-1.7-12.4-1.7c-9.7,0-18.9,3-18.9,14.1c0,10.7,6.9,13.6,15.6,13.9
	C602.3,221.5,607.7,222.1,607.7,230 M625.5,202.4c-3.6,0-5.6-2.1-5.6-5.5s2-5.5,5.6-5.5s5.6,2.1,5.6,5.5S629.1,202.4,625.5,202.4
	 M625.5,201.5c3,0,4.5-1.8,4.5-4.6c0-2.8-1.5-4.6-4.5-4.6c-3.1,0-4.5,1.8-4.5,4.6S622.5,201.5,625.5,201.5 M627.8,199.6h-1l-0.9-1.9
	h-1.3v1.9h-1v-5.4h2.1c1.5,0,2.2,0.4,2.2,1.8c0,0.8-0.5,1.5-1.1,1.6L627.8,199.6z M625.8,196.8c0.8,0,1-0.2,1-1c0-0.6-0.2-0.9-1-0.9
	h-1.3v1.9H625.8z M31.1,250.8h91.7v-63.6H31.1V250.8z M52.4,242.6H41.9v-47.1h10.5c10.8,0,19.9,10.8,19.9,23.5
	C72.3,232,63.2,242.6,52.4,242.6 M112,242.6h-10.5c-10.9,0-19.9-10.6-19.9-23.7c0-12.7,9-23.5,19.9-23.5H112V242.6z M361.9,194.2
	l-12.4,22.4l-12-22.4h-11.2c2.1,3.8,16.8,31.4,16.8,31.4s0,15.7,0,18.2h12c0-2.5,0-18.1,0-18.1s15.3-27.6,17.4-31.5H361.9z
	 M227.3,226.4c0,8.8-3.1,10.8-11.7,10.8c-8.6,0-11.7-2-11.7-10.8v-14.9c0-8.6,3.1-10.4,11.7-10.4c8.6,0,11.7,1.9,11.7,10.4V226.4z
	 M232.3,196.9c-3.4-2.4-9.2-3.6-16.6-3.6c-7.3,0-12.6,1-16.7,3.6c-4.3,2.8-6.2,7.3-6.2,14.5V227c0,7.2,2.1,12.1,6.2,14.5
	c3.3,2.3,8.8,3.4,16.7,3.4c7.8,0,13.4-1.1,16.6-3.4c4.1-2.6,6.3-7.6,6.3-14.6v-15.6C238.6,204.6,236.4,199.7,232.3,196.9
	 M174.4,225.2c0,8.7-4.6,10.9-8.5,10.9h-13.7v-34.7h13.7c3.9,0,8.5,2.2,8.5,10.3V225.2z M165.8,194.2H141v49.6h26.6
	c13.1,0,18-5.3,18-19.7v-10.9C185.5,199.5,180,194.2,165.8,194.2 M258,194.2h-11.2v49.6h31.8v-8.2h-20.7v-41.4H258z M312,217.5
	c8.8-0.8,10.7-5.1,10.7-11.3c0-5.5-2.3-8.2-4.9-9.8c-2.1-1.3-4.6-2.2-9.9-2.2h-23.2v49.6h23.5c7.2,0,10.2-1.4,11.6-2.4
	c2.4-1.6,5.5-5.1,5.5-10.8C325.4,223.9,323.1,217.3,312,217.5 M306.1,236.5H296l0,0v-35.2l0,0h11c3.7,0,6,3,6,7
	c0,6.2-3,6.4-11.6,6.7v5.8c7.7,0,13.8-0.5,13.8,7.4C315.2,232.1,312.7,236.5,306.1,236.5"/>
</svg>
